<svg width="21" height="22" viewBox="0 0 21 22" fill="none" xmlns="http://www.w3.org/2000/svg">
<path d="M5.7925 9.94125C7.0525 12.4175 9.0825 14.4387 11.5588 15.7075L13.4837 13.7825C13.72 13.5463 14.07 13.4675 14.3763 13.5725C15.3562 13.8962 16.415 14.0712 17.5 14.0712C17.9812 14.0712 18.375 14.465 18.375 14.9462V18C18.375 18.4812 17.9812 18.875 17.5 18.875C9.28375 18.875 2.625 12.2163 2.625 4C2.625 3.51875 3.01875 3.125 3.5 3.125H6.5625C7.04375 3.125 7.4375 3.51875 7.4375 4C7.4375 5.09375 7.6125 6.14375 7.93625 7.12375C8.0325 7.43 7.9625 7.77125 7.7175 8.01625L5.7925 9.94125Z" fill="white"/>
</svg>
